<svg xmlns="http://www.w3.org/2000/svg" xmlns:xlink="http://www.w3.org/1999/xlink" width="82" height="82" viewBox="0 0 82 82">
  <defs>
    <clipPath id="clip-path">
      <rect id="Rectangle_16906" data-name="Rectangle 16906" width="41" height="41" transform="translate(0.5 0.5)" fill="#fff"/>
    </clipPath>
  </defs>
  <g id="Group_27464" data-name="Group 27464" transform="translate(-512 -2724)">
    <circle id="Ellipse_133" data-name="Ellipse 133" cx="41" cy="41" r="41" transform="translate(512 2724)" fill="#e59601"/>
    <g id="Group_2885" data-name="Group 2885" transform="translate(532.5 2744.5)">
      <g id="Group_2688" data-name="Group 2688" clip-path="url(#clip-path)">
        <path id="Path_3704" data-name="Path 3704" d="M35.174,41H31.558q0-2.978,0-5.957a1.238,1.238,0,0,0-1.393-1.41q-4.633,0-9.267,0a1.237,1.237,0,0,0-1.393,1.41q0,2.979,0,5.957H15.89q0-19.771,0-39.544C15.89.44,16.333,0,17.358,0H33.624c1.136,0,1.55.41,1.55,1.536V41M31.556,10.844a1.2,1.2,0,1,0-1.227,1.166,1.216,1.216,0,0,0,1.227-1.166m-10.9,1.166a1.2,1.2,0,1,0-1.145-1.247,1.218,1.218,0,0,0,1.145,1.247m.038,2.406a1.2,1.2,0,1,0,1.224,1.17,1.215,1.215,0,0,0-1.224-1.17M26.735,15.6a1.2,1.2,0,1,0-1.175,1.218A1.215,1.215,0,0,0,26.735,15.6m4.821.037a1.2,1.2,0,1,0-1.212,1.181,1.215,1.215,0,0,0,1.212-1.181M20.7,19.22A1.2,1.2,0,1,0,21.914,20.4,1.215,1.215,0,0,0,20.7,19.22m6.03-8.405a1.2,1.2,0,1,0-1.2,1.2,1.214,1.214,0,0,0,1.2-1.2m3.631,8.405a1.2,1.2,0,1,0,1.19,1.2,1.216,1.216,0,0,0-1.19-1.2m-8.452,5.993a1.2,1.2,0,1,0-1.182,1.212,1.216,1.216,0,0,0,1.182-1.212m4.821.018a1.2,1.2,0,1,0-1.2,1.194,1.215,1.215,0,0,0,1.2-1.194m3.622,1.194a1.2,1.2,0,1,0-1.209-1.185,1.215,1.215,0,0,0,1.209,1.185M20.7,28.83a1.2,1.2,0,1,0,1.212,1.181A1.215,1.215,0,0,0,20.7,28.83m6.033,1.21a1.2,1.2,0,1,0-1.2,1.189,1.214,1.214,0,0,0,1.2-1.189m4.821-.005a1.2,1.2,0,1,0-1.2,1.194,1.214,1.214,0,0,0,1.2-1.194m0-24.012a1.2,1.2,0,1,0-1.209,1.184,1.215,1.215,0,0,0,1.209-1.184M25.545,4.806a1.2,1.2,0,1,0,1.19,1.2,1.216,1.216,0,0,0-1.19-1.2m-4.819,2.4a1.2,1.2,0,1,0-1.22-1.174,1.215,1.215,0,0,0,1.22,1.174m6.009,13.2a1.2,1.2,0,1,0-1.178,1.216A1.215,1.215,0,0,0,26.735,20.4" transform="translate(-5.032 0)" fill="#fff"/>
        <path id="Path_3705" data-name="Path 3705" d="M.894,45.453A1.543,1.543,0,0,1,0,43.84q.025-14.149.011-28.3c0-1.046.436-1.48,1.485-1.48H8.447v31.39H5.394c.013-.131.038-.262.038-.394q0-2.778,0-5.556a2.772,2.772,0,0,0-.024-.4,1.191,1.191,0,0,0-2.3-.23,2.061,2.061,0,0,0-.081.629q-.008,2.778,0,5.556c0,.131.025.262.038.394ZM5.428,20.066a1.2,1.2,0,1,0-1.2,1.2,1.2,1.2,0,0,0,1.2-1.2M4.22,26.073a1.2,1.2,0,1,0-1.19-1.209,1.205,1.205,0,0,0,1.19,1.209m.023,2.4a1.2,1.2,0,1,0,1.185,1.214,1.206,1.206,0,0,0-1.185-1.214m-.011,4.8a1.2,1.2,0,1,0,1.2,1.2,1.206,1.206,0,0,0-1.2-1.2" transform="translate(0 -4.453)" fill="#fff"/>
        <path id="Path_3706" data-name="Path 3706" d="M47.638,45.453V14.081c.148-.006.277-.018.405-.018H54.67a1.238,1.238,0,0,1,1.4,1.4q0,14.19.011,28.377a1.547,1.547,0,0,1-.894,1.613h-2.17c.013-.131.038-.262.038-.394q0-2.778,0-5.556a2.747,2.747,0,0,0-.024-.4,1.191,1.191,0,0,0-2.3-.23,2.053,2.053,0,0,0-.081.627q-.008,2.778,0,5.556c0,.131.025.262.038.394Zm4.226-26.584a1.2,1.2,0,1,0,1.191,1.207,1.2,1.2,0,0,0-1.191-1.207m0,7.2a1.2,1.2,0,1,0-1.206-1.194,1.206,1.206,0,0,0,1.206,1.194m1.192,3.589a1.2,1.2,0,1,0-1.183,1.216,1.2,1.2,0,0,0,1.183-1.216m0,4.813a1.2,1.2,0,1,0-1.192,1.207,1.2,1.2,0,0,0,1.192-1.207" transform="translate(-15.085 -4.453)" fill="#fff"/>
        <rect id="Rectangle_16904" data-name="Rectangle 16904" width="2.411" height="4.936" transform="translate(21.705 36.064)" fill="#fff"/>
        <rect id="Rectangle_16905" data-name="Rectangle 16905" width="2.411" height="4.936" transform="translate(16.884 36.064)" fill="#fff"/>
      </g>
    </g>
  </g>
</svg>
