<svg xmlns="http://www.w3.org/2000/svg" xmlns:xlink="http://www.w3.org/1999/xlink" width="92" height="92" viewBox="0 0 92 92">
  <defs>
    <clipPath id="clip-path">
      <rect id="Rectangle_15876" data-name="Rectangle 15876" width="25.584" height="18.152" transform="translate(0 0)" fill="none"/>
    </clipPath>
  </defs>
  <g id="Group_27465" data-name="Group 27465" transform="translate(-1255 -22)">
    <circle id="Ellipse_1" data-name="Ellipse 1" cx="46" cy="46" r="46" transform="translate(1255 22)" fill="#e59601"/>
    <text id="CONTACT" transform="translate(1301 60)" fill="#fff" font-size="12" font-family="Lato-Bold, Lato" font-weight="700" letter-spacing="0.1em"><tspan x="-31.731" y="0">CONTACT</tspan></text>
    <g id="Group_1805" data-name="Group 1805" transform="translate(1288.207 70)">
      <g id="Group_1804" data-name="Group 1804" transform="translate(0 0)" clip-path="url(#clip-path)">
        <path id="Path_2540" data-name="Path 2540" d="M9.583,11.032,0,1.547v15.5a1.33,1.33,0,0,0,1.108,1.108H24.477a1.329,1.329,0,0,0,1.108-1.108V1.547l-9.574,9.485-2.3,2.261a1.22,1.22,0,0,1-.91.388,1.265,1.265,0,0,1-.928-.388ZM1.045,0,12.338,11.216a.619.619,0,0,0,.453.18.628.628,0,0,0,.457-.18L24.541,0Z" transform="translate(-0.001 0)" fill="#fff"/>
      </g>
    </g>
  </g>
</svg>
