<svg xmlns="http://www.w3.org/2000/svg" xmlns:xlink="http://www.w3.org/1999/xlink" width="82" height="82" viewBox="0 0 82 82">
  <defs>
    <clipPath id="clip-path">
      <rect id="Rectangle_16874" data-name="Rectangle 16874" width="30" height="41" transform="translate(0.35 -0.183)" fill="#fff"/>
    </clipPath>
  </defs>
  <g id="Group_27465" data-name="Group 27465" transform="translate(-1010 -2724)">
    <circle id="Ellipse_134" data-name="Ellipse 134" cx="41" cy="41" r="41" transform="translate(1010 2724)" fill="#e59601"/>
    <g id="Group_2884" data-name="Group 2884" transform="translate(1036.65 2745.184)">
      <g id="Group_2654" data-name="Group 2654" clip-path="url(#clip-path)">
        <path id="Path_3694" data-name="Path 3694" d="M26.36,0c.842.125,1.179.692,1.382,1.451q1.921,7.142,3.879,14.274c.024.09.049.18.072.271.14.572-.057.826-.66.841s-1.235-.008-1.848.038a13.5,13.5,0,0,0-5.061,1.466c-1.82.907-3.6,1.891-5.4,2.839a16.981,16.981,0,0,1-5.134,1.907,16.411,16.411,0,0,1-2.759.187c-.849-.005-1.292-.448-1.533-1.328Q8.49,19,7.688,16.044,6.533,11.8,5.378,7.558c-.025-.09-.049-.18-.07-.271-.126-.529.072-.8.615-.815.642-.019,1.288,0,1.928-.043A13.358,13.358,0,0,0,12.838,4.99c1.845-.916,3.647-1.918,5.471-2.875a18.277,18.277,0,0,1,5.1-1.9c.42-.079.842-.141,1.263-.21Z" transform="translate(-1.669)" fill="#fff"/>
        <path id="Path_3695" data-name="Path 3695" d="M10.786,42.408a1.268,1.268,0,0,1-.987,1.33A1.188,1.188,0,0,1,8.4,43c-.3-.924-.527-1.871-.767-2.813Q3.863,25.415.107,10.636a2.36,2.36,0,0,1-.1-.862A1.211,1.211,0,0,1,1.177,8.747a1.23,1.23,0,0,1,1.287.934c.249.9.471,1.805.7,2.709q3.768,14.8,7.533,29.594c.042.167.07.338.087.424" transform="translate(0 -2.769)" fill="#fff"/>
      </g>
    </g>
  </g>
</svg>
