<svg xmlns="http://www.w3.org/2000/svg" xmlns:xlink="http://www.w3.org/1999/xlink" width="53" height="53" viewBox="0 0 53 53">
  <defs>
    <clipPath id="clip-path">
      <rect id="Rectangle_15876" data-name="Rectangle 15876" width="20.009" height="14.197" transform="translate(0 0)" fill="none"/>
    </clipPath>
  </defs>
  <g id="Group_27466" data-name="Group 27466" transform="translate(-246 -9)">
    <path id="Path_106999" data-name="Path 106999" d="M26.5,0A26.5,26.5,0,1,1,0,26.5,26.5,26.5,0,0,1,26.5,0Z" transform="translate(246 9)"/>
    <g id="Group_1805" data-name="Group 1805" transform="translate(262.496 28.401)">
      <g id="Group_1804" data-name="Group 1804" transform="translate(0 0)" clip-path="url(#clip-path)">
        <path id="Path_2540" data-name="Path 2540" d="M7.5,8.628,0,1.21V13.33a1.04,1.04,0,0,0,.866.867H19.144a1.04,1.04,0,0,0,.867-.867V1.21L12.523,8.628l-1.8,1.768a.954.954,0,0,1-.712.3.99.99,0,0,1-.726-.3ZM.818,0,9.65,8.772A.484.484,0,0,0,10,8.913a.491.491,0,0,0,.357-.141L19.194,0Z" transform="translate(-0.001 0)" fill="#fff"/>
      </g>
    </g>
  </g>
</svg>
