<svg xmlns="http://www.w3.org/2000/svg" xmlns:xlink="http://www.w3.org/1999/xlink" width="92" height="92" viewBox="0 0 92 92">
  <defs>
    <clipPath id="clip-path">
      <rect id="Rectangle_15876" data-name="Rectangle 15876" width="25.584" height="18.152" transform="translate(0 0)" fill="none"/>
    </clipPath>
  </defs>
  <g id="Group_27461" data-name="Group 27461" transform="translate(-1130 10131)">
    <circle id="Ellipse_1" data-name="Ellipse 1" cx="46" cy="46" r="46" transform="translate(1130 -10131)"/>
    <path id="Path_106999" data-name="Path 106999" d="M-24.807-2.046a.322.322,0,0,1,.234.1l.636.69a3.493,3.493,0,0,1-1.3,1A4.476,4.476,0,0,1-27.087.1a4.374,4.374,0,0,1-1.737-.33,3.829,3.829,0,0,1-1.317-.918,4.019,4.019,0,0,1-.837-1.4,5.27,5.27,0,0,1-.291-1.782,4.96,4.96,0,0,1,.312-1.791,4.116,4.116,0,0,1,.879-1.4,3.978,3.978,0,0,1,1.353-.915,4.488,4.488,0,0,1,1.74-.327A4.274,4.274,0,0,1-25.3-8.46a4.009,4.009,0,0,1,1.251.816l-.54.75a.49.49,0,0,1-.123.126.349.349,0,0,1-.207.054.4.4,0,0,1-.186-.051q-.1-.051-.21-.126t-.264-.165a2.173,2.173,0,0,0-.348-.165,2.84,2.84,0,0,0-.459-.126,3.171,3.171,0,0,0-.6-.051,2.676,2.676,0,0,0-1.065.207,2.314,2.314,0,0,0-.831.6,2.766,2.766,0,0,0-.54.96,4.023,4.023,0,0,0-.192,1.293,3.8,3.8,0,0,0,.207,1.3,2.863,2.863,0,0,0,.561.96,2.4,2.4,0,0,0,.834.6,2.578,2.578,0,0,0,1.032.207,4.5,4.5,0,0,0,.6-.036,2.534,2.534,0,0,0,.492-.114,2.184,2.184,0,0,0,.426-.2,2.662,2.662,0,0,0,.4-.3.569.569,0,0,1,.126-.087A.3.3,0,0,1-24.807-2.046Zm11.268-2.292a4.85,4.85,0,0,1-.315,1.767,4.148,4.148,0,0,1-.891,1.407,4.048,4.048,0,0,1-1.386.927,4.692,4.692,0,0,1-1.8.333,4.676,4.676,0,0,1-1.794-.333,4.08,4.08,0,0,1-1.389-.927,4.163,4.163,0,0,1-.9-1.407,4.809,4.809,0,0,1-.318-1.767,4.809,4.809,0,0,1,.318-1.767,4.163,4.163,0,0,1,.9-1.407,4.08,4.08,0,0,1,1.389-.927,4.676,4.676,0,0,1,1.794-.333,4.869,4.869,0,0,1,1.242.153,4.361,4.361,0,0,1,1.068.432,3.948,3.948,0,0,1,.873.678,4.121,4.121,0,0,1,.657.891A4.367,4.367,0,0,1-13.68-5.55,5.081,5.081,0,0,1-13.539-4.338Zm-1.65,0a3.982,3.982,0,0,0-.192-1.281,2.746,2.746,0,0,0-.546-.963,2.338,2.338,0,0,0-.861-.606,2.962,2.962,0,0,0-1.143-.21,2.962,2.962,0,0,0-1.143.21,2.365,2.365,0,0,0-.864.606,2.72,2.72,0,0,0-.549.963,3.982,3.982,0,0,0-.192,1.281,3.982,3.982,0,0,0,.192,1.281,2.689,2.689,0,0,0,.549.96,2.382,2.382,0,0,0,.864.6,2.962,2.962,0,0,0,1.143.21,2.962,2.962,0,0,0,1.143-.21,2.354,2.354,0,0,0,.861-.6,2.714,2.714,0,0,0,.546-.96A3.982,3.982,0,0,0-15.189-4.338ZM-3.6-8.676V0h-.828a.729.729,0,0,1-.321-.063A.751.751,0,0,1-5-.276L-9.531-6.06q.036.4.036.732V0h-1.422V-8.676h.846a1.509,1.509,0,0,1,.177.009.425.425,0,0,1,.132.036.433.433,0,0,1,.111.078,1.25,1.25,0,0,1,.12.135L-4.983-2.61q-.018-.21-.03-.414T-5.025-3.4V-8.676ZM5.589-7.35H2.973V0H1.359V-7.35H-1.257V-8.676H5.589Zm6.078,4.074L10.611-6.162q-.078-.192-.162-.456t-.168-.57q-.078.306-.162.573t-.162.465L8.907-3.276ZM14.517,0H13.269a.533.533,0,0,1-.342-.105.654.654,0,0,1-.2-.261l-.648-1.77H8.487L7.839-.366a.575.575,0,0,1-.186.252A.519.519,0,0,1,7.311,0H6.051L9.465-8.676h1.644Zm7.8-2.046a.322.322,0,0,1,.234.1l.636.69a3.493,3.493,0,0,1-1.3,1A4.476,4.476,0,0,1,20.037.1,4.374,4.374,0,0,1,18.3-.234a3.829,3.829,0,0,1-1.317-.918,4.019,4.019,0,0,1-.837-1.4,5.27,5.27,0,0,1-.291-1.782,4.96,4.96,0,0,1,.312-1.791,4.116,4.116,0,0,1,.879-1.4A3.978,3.978,0,0,1,18.4-8.445a4.488,4.488,0,0,1,1.74-.327,4.274,4.274,0,0,1,1.683.312,4.009,4.009,0,0,1,1.251.816l-.54.75a.49.49,0,0,1-.123.126.349.349,0,0,1-.207.054.4.4,0,0,1-.186-.051q-.1-.051-.21-.126t-.264-.165a2.173,2.173,0,0,0-.348-.165,2.84,2.84,0,0,0-.459-.126,3.171,3.171,0,0,0-.6-.051,2.676,2.676,0,0,0-1.065.207,2.314,2.314,0,0,0-.831.6,2.766,2.766,0,0,0-.54.96A4.023,4.023,0,0,0,17.5-4.338a3.8,3.8,0,0,0,.207,1.3,2.863,2.863,0,0,0,.561.96,2.4,2.4,0,0,0,.834.6,2.578,2.578,0,0,0,1.032.207,4.5,4.5,0,0,0,.6-.036,2.534,2.534,0,0,0,.492-.114,2.184,2.184,0,0,0,.426-.2,2.662,2.662,0,0,0,.4-.3.569.569,0,0,1,.126-.087A.3.3,0,0,1,22.317-2.046Zm9.24-5.3H28.941V0H27.327V-7.35H24.711V-8.676h6.846Z" transform="translate(1176 -10093)" fill="#fff"/>
    <g id="Group_1805" data-name="Group 1805" transform="translate(1163.207 -10083)">
      <g id="Group_1804" data-name="Group 1804" transform="translate(0 0)" clip-path="url(#clip-path)">
        <path id="Path_2540" data-name="Path 2540" d="M9.583,11.032,0,1.547v15.5a1.33,1.33,0,0,0,1.108,1.108H24.477a1.329,1.329,0,0,0,1.108-1.108V1.547l-9.574,9.485-2.3,2.261a1.22,1.22,0,0,1-.91.388,1.265,1.265,0,0,1-.928-.388ZM1.045,0,12.338,11.216a.619.619,0,0,0,.453.18.628.628,0,0,0,.457-.18L24.541,0Z" transform="translate(-0.001 0)" fill="#fff"/>
      </g>
    </g>
  </g>
</svg>
