<svg data-name="Group 1969" xmlns="http://www.w3.org/2000/svg" width="30.907" height="31.136"><defs><clipPath id="prefix__a"><path data-name="Rectangle 15875" fill="#fff" d="M0 0h30.907v31.136H0z"/></clipPath></defs><g data-name="Group 1801" clip-path="url(#prefix__a)" fill="#fff"><path data-name="Path 2536" d="M24.261 24.568l-5.8-2.912a2.278 2.278 0 00-2.159.214l-1.687 1.248a1.853 1.853 0 01-1.926-.116 28.09 28.09 0 01-6.2-8.379 1.853 1.853 0 01.452-1.876l1.683-1.245a2.278 2.278 0 00.836-2l-1.088-6.4a2.544 2.544 0 00-3.835-1.7 7.456 7.456 0 00-.748.487C-2.1 6.245-.66 14.633 4.9 22.202l.036.047.035.048c5.614 7.533 13.216 11.358 19.1 7a7.454 7.454 0 00.684-.573 2.544 2.544 0 00-.5-4.161"/><path data-name="Path 2537" d="M15.229 9.655a10.626 10.626 0 015.411 5.526.822.822 0 101.514-.641 12.266 12.266 0 00-6.244-6.382.824.824 0 10-.681 1.5"/><path data-name="Path 2538" d="M16.336 4.063a.822.822 0 10-.556 1.548 14.634 14.634 0 019.255 9.993.822.822 0 001.59-.42A16.278 16.278 0 0016.336 4.063"/><path data-name="Path 2539" d="M30.895 15.758a19.956 19.956 0 00-4.793-9.757 20.622 20.622 0 00-9.32-5.962.822.822 0 10-.483 1.572 18.83 18.83 0 0112.977 14.441.822.822 0 00.808.677.836.836 0 00.147-.013.822.822 0 00.663-.955"/></g></svg>