<svg xmlns="http://www.w3.org/2000/svg" width="43" height="43" viewBox="0 0 43 43">
  <g id="Group_27464" data-name="Group 27464" transform="translate(-1245 -10800)">
    <circle id="Ellipse_209" data-name="Ellipse 209" cx="21.5" cy="21.5" r="21.5" transform="translate(1245 10800)" fill="#e59601"/>
    <g id="Group_2273" data-name="Group 2273" transform="translate(1255.729 10810.729)">
      <path id="Path_533" data-name="Path 533" d="M1131.293,2476.25c2.877,0,3.216.011,4.352.063a5.965,5.965,0,0,1,2,.371,3.572,3.572,0,0,1,2.044,2.045,5.969,5.969,0,0,1,.371,2c.051,1.136.062,1.477.062,4.352s-.011,3.217-.062,4.353a5.973,5.973,0,0,1-.371,2,3.566,3.566,0,0,1-2.044,2.044,5.961,5.961,0,0,1-2,.371c-1.135.051-1.476.063-4.352.063s-3.217-.012-4.352-.063a5.955,5.955,0,0,1-2-.371,3.565,3.565,0,0,1-2.045-2.044,5.957,5.957,0,0,1-.371-2c-.052-1.135-.063-1.476-.063-4.353s.011-3.216.063-4.352a5.952,5.952,0,0,1,.371-2,3.571,3.571,0,0,1,2.045-2.045,5.958,5.958,0,0,1,2-.371c1.136-.052,1.477-.063,4.352-.063m0-1.94c-2.925,0-3.292.013-4.441.065a7.9,7.9,0,0,0-2.614.5,5.508,5.508,0,0,0-3.151,3.15,7.914,7.914,0,0,0-.5,2.615c-.053,1.148-.065,1.515-.065,4.44s.012,3.293.065,4.441a7.908,7.908,0,0,0,.5,2.615,5.5,5.5,0,0,0,3.151,3.149,7.889,7.889,0,0,0,2.614.5c1.149.052,1.516.064,4.441.064s3.292-.013,4.441-.064a7.9,7.9,0,0,0,2.615-.5,5.5,5.5,0,0,0,3.15-3.149,7.927,7.927,0,0,0,.5-2.615c.052-1.148.065-1.515.065-4.441s-.013-3.292-.065-4.44a7.933,7.933,0,0,0-.5-2.615,5.511,5.511,0,0,0-3.15-3.15,7.911,7.911,0,0,0-2.615-.5c-1.149-.052-1.516-.065-4.441-.065Z" transform="translate(-1120.522 -2474.31)" fill="#fff"/>
      <path id="Path_534" data-name="Path 534" d="M1131.88,2480.137a5.531,5.531,0,1,0,5.531,5.531A5.531,5.531,0,0,0,1131.88,2480.137Zm0,9.122a3.59,3.59,0,1,1,3.591-3.591A3.591,3.591,0,0,1,1131.88,2489.259Z" transform="translate(-1121.109 -2474.898)" fill="#fff"/>
      <ellipse id="Ellipse_49" data-name="Ellipse 49" cx="1.293" cy="1.293" rx="1.293" ry="1.293" transform="translate(15.229 3.729)" fill="#fff"/>
    </g>
  </g>
</svg>
