<svg xmlns="http://www.w3.org/2000/svg" xmlns:xlink="http://www.w3.org/1999/xlink" width="110.319" height="66.652" viewBox="0 0 110.319 66.652">
  <defs>
    <clipPath id="clip-path">
      <rect id="Rectangle_15877" data-name="Rectangle 15877" width="110.319" height="42.383" fill="none"/>
    </clipPath>
    <clipPath id="clip-path-2">
      <rect id="Rectangle_15975" data-name="Rectangle 15975" width="74.067" height="16.261" fill="none"/>
    </clipPath>
  </defs>
  <g id="Group_1848" data-name="Group 1848" transform="translate(-33 -29.5)">
    <g id="Group_1808" data-name="Group 1808" transform="translate(33 29.5)">
      <path id="Path_2541" data-name="Path 2541" d="M54.412,0,39.866,10.324l-6.82-5.276L0,35.04,17.139,24.567l-3.73,5.676,9.724-9.106-1.787,4.816L31.913,12.511l-6.33,3.915L33.16,6.518l4.974,5.424-3.7,4.148,7.954-4.45-7.606,7.828-.068,7.272,2.145-6.65,10.395-9.317,2.9,9.629L49.324,9.646l3.96-4.484L50.606,6.216,54.412,1.96l12.062,15.9L75.481,23.4l-2.866-2.94,5.162,2.45-7.008,7.538L84.3,21.479l-.718,5.236,5.692-8.364,9.69,14.366-2.792-7.126L110.319,40.9l-21.01-26.4L79.247,22.271,68.018,16.54Z" transform="translate(0 0)"/>
      <path id="Path_2542" data-name="Path 2542" d="M568.355,210.12l-6.754,5.491-1.251,4.362Z" transform="translate(-522.273 -195.842)" fill-rule="evenodd"/>
      <path id="Path_2543" data-name="Path 2543" d="M812.076,107.809,822.742,122.6l-7.679,5.514,3.915-6.328-4.558-.322,2.99-2.763Z" transform="translate(-756.894 -100.483)" fill-rule="evenodd"/>
      <path id="Path_2544" data-name="Path 2544" d="M1319.077,300.249l6.1,9.965-6.1-6.171Z" transform="translate(-1229.443 -279.846)" fill-rule="evenodd"/>
      <g id="Group_1807" data-name="Group 1807" transform="translate(0 0)">
        <g id="Group_1806" data-name="Group 1806" clip-path="url(#clip-path)">
          <path id="Path_2545" data-name="Path 2545" d="M111.561,414.09V413.2h-.8c-.019-.492.795-.849.187-1.39l-.567-.059a2.2,2.2,0,0,0,.333-.754c0-.193-.23-.389-.407-.561-.038-.282.256-.6-.235-.875-.162-.092-.071-.633-.1-.969l-.188-.014c-.054.321,0,.777-.185.934-.425.352.026.651-.072,1-.36-.083-.551.118-.479.444a3.442,3.442,0,0,0,.422.792c-.207.013-.344.023-.483.029a.366.366,0,0,0-.341.57c.137.262.3.51.493.833h-.9c-.447.581.338.9.344,1.434h-.862a1.692,1.692,0,0,1-.225.546,1.578,1.578,0,0,1-.531.266v-.73l-.655-.037c.34-1.068.34-1.068-.279-1.185.034-.336.591-.767-.044-.971l-.334-1.49h-.164l-.285,1.461c-.78.191.014.645-.014,1.011l-.656.06.4,1.1c-.114.009-.22.026-.327.025-.465,0-.557.157-.322.574.1.174.207.342.346.569h-.774c-.068.5-.469.587-.878.688-1,.247-2,.51-3.057.78.12-.686,1.083-1.116.374-1.91H99.153c.083-.7,1.106-1.134.407-1.93l-.98-.047c.191-.593,1.016-1.052.214-1.734l-.473.076a2.678,2.678,0,0,0,.211-.8c-.014-.2-.214-.385-.381-.658l-.243-1.305-.222,0-.348,1.4c-.918.247.195.889-.074,1.366l-.525-.139c-.292.395-.4.753.033,1.131a2.921,2.921,0,0,1,.409.7,7.527,7.527,0,0,0-.858.009c-.149.019-.381.092-.41.191a.965.965,0,0,0,.011.652,8.178,8.178,0,0,0,.669.973l-.069.168c-1.368,0-.441,2.124-.759,2.089s.184-2.3-1.156-2.3c.078-.434.688-.919-.044-1.2l-.414-1.819-.151-.01-.346,1.807c-.221-.058-.4.136-.349.432a3.048,3.048,0,0,0,.4.759c-.153.023-.268.052-.384.057-.425.018-.548.235-.339.62.119.219.25.43.41.7-.325,0-.912.452-.841.657a4.539,4.539,0,0,0,.4.707,27.646,27.646,0,0,1-5.819.476c.006-.492.687-.823.2-1.384H86.67a4.375,4.375,0,0,0,.366-.948c.066-.493-.48-.268-.678-.467.378-.87.362-.993-.04-1.139l-.42-1.766-.162-.015-.336,1.713.137.065h-.345c-.155.311-.155.311.226,1.19l-.665.036c-.443.542.275.819.312,1.313h-.75c-.472.559.32.872.279,1.516l-.546-.537h-.838c-.1-.6.9-.932.339-1.607h-.872c.006-.553.847-.883.354-1.519l-.765-.045c.078-.5.75-.8.248-1.37l-.4.035a1.641,1.641,0,0,1,.059-.38c.108-.257.261-.5-.1-.691-.051-.027-.009-.207-.031-.312-.056-.256-.124-.51-.187-.764l-.138,0-.215,1.106c-.547.155-.1.616-.145.993-.439-.088-.524.272-.5.528a2.592,2.592,0,0,0,.4.812l-.676.061c-.546.563.135.957.269,1.494h-.784c-.583.617.195,1.021.258,1.607-5.086-.536-10.506-4.19-10.626-4.263-.031.042,5.043,5.433,15.033,6.475a45.8,45.8,0,0,0,12.854-.8c4.8-.859,9.537-2.011,14.264-3.206,2.867-.725,5.733-1.485,8.637-2.028a66,66,0,0,1,25.861-1.253c11.664,1.546,19.53,5.42,24.2,7.316-.226-.148-.45-.3-.679-.443a56.063,56.063,0,0,0-12.077-5.7c-.2-.067-.358-.251-.557-.311a2.838,2.838,0,0,0-.7-.011,4.979,4.979,0,0,0,.28-.552.9.9,0,0,0,.073-.475c-.017-.064-.258-.074-.4-.1a2.4,2.4,0,0,0-.247-.02c-.118-.381,1.093-1.074-.281-1.111-.044-.361.783-.84-.031-1-.09-.5-.171-.956-.252-1.408l-.14-.014-.383,1.434c-.307.155-.325.287-.024.919-.656.325-.656.325-.265,1.124l-.768.286q0,.09,0,.181a5.18,5.18,0,0,0-1.427-.406c-.057-.535.738-.831.3-1.441h-.809c.18-.371.349-.687.482-1.018.029-.073-.074-.2-.128-.332h-.727a3.618,3.618,0,0,0,.407-.8c.064-.3-.08-.52-.357-.433l-.309-1.83-.135-.009a1.753,1.753,0,0,0-.138.309c-.115.49-.219.983-.339,1.528-.353.087-.353.087-.07,1.217l-.507.046c-.506.518.11.855.221,1.33H149.8l-.169.764a83.25,83.25,0,0,0-38.07,2.228" transform="translate(-64.954 -379.034)" fill-rule="evenodd"/>
          <path id="Path_2546" data-name="Path 2546" d="M756.526,522.067a60.229,60.229,0,0,0-28.329-.284,50.9,50.9,0,0,0-14.353,5.483c.069-.009,12.6-4.878,20.954-4.878a37.289,37.289,0,0,1,5.845.445c1.374.217,2.737.5,4.105.753l-.022.108c-.081,0-.161-.006-.242-.006-2.118-.009-4.238-.076-6.354-.01a18.282,18.282,0,0,0-5.84,1.085,7.115,7.115,0,0,0-2.455,1.591.735.735,0,0,0,.118-.03,17.158,17.158,0,0,1,8.716-2.1c2.8-.014,5.578.33,8.363.542.755.057,1.509.128,2.264.159.152.006.31-.139.465-.215-.068-.135-.1-.309-.21-.4a2.652,2.652,0,0,0-.655-.385,32.207,32.207,0,0,0-7.419-2.021q-.767-.114-1.536-.2a76.018,76.018,0,0,1,13.124.919,108.812,108.812,0,0,1,13.2,3.061,47.192,47.192,0,0,0-9.735-3.618" transform="translate(-665.336 -484.883)" fill-rule="evenodd"/>
        </g>
      </g>
    </g>
    <g id="Group_1865" data-name="Group 1865" transform="translate(51.126 79.891)">
      <g id="Group_1864" data-name="Group 1864" transform="translate(0 0)" clip-path="url(#clip-path-2)">
        <path id="Path_3003" data-name="Path 3003" d="M9.427,6.073H5.369V4.656a7.036,7.036,0,0,0-.116-1.677A.513.513,0,0,0,4.7,2.641a.511.511,0,0,0-.511.289,4.72,4.72,0,0,0-.135,1.485V11.9a4.47,4.47,0,0,0,.135,1.383.526.526,0,0,0,.54.333.6.6,0,0,0,.6-.376,4.395,4.395,0,0,0,.159-1.465V9.928H4.675V7.557H9.427v8.377H6.877L6.5,14.816A2.839,2.839,0,0,1,5.455,15.9a2.955,2.955,0,0,1-1.49.361,3.873,3.873,0,0,1-1.914-.5A3.66,3.66,0,0,1,.695,14.536,3.891,3.891,0,0,1,.116,13,18.513,18.513,0,0,1,0,10.584V5.947A15.518,15.518,0,0,1,.241,2.7,3.333,3.333,0,0,1,1.624.844,4.849,4.849,0,0,1,4.579,0,5.5,5.5,0,0,1,7.538.733a3.457,3.457,0,0,1,1.533,1.74A9.217,9.217,0,0,1,9.427,5.4Z" transform="translate(0 0)" fill="#1a1311"/>
        <path id="Path_3004" data-name="Path 3004" d="M30.8.8V13.28h2.468V16.4H26.742V.8Z" transform="translate(-15.744 -0.469)" fill="#1a1311"/>
        <path id="Path_3005" data-name="Path 3005" d="M87.281.8H91.33a10.681,10.681,0,0,1,2.906.3,2.881,2.881,0,0,1,1.6,1.209,5.436,5.436,0,0,1,.607,2.933,3.155,3.155,0,0,1-.429,1.907,2.987,2.987,0,0,1-1.692.828,3,3,0,0,1,1.909,1.056,4.074,4.074,0,0,1,.5,2.262v1.446a5.743,5.743,0,0,1-.362,2.343,1.948,1.948,0,0,1-1.152,1.042,11.8,11.8,0,0,1-3.239.28H87.281Zm4.058,2.67v3.47q.26-.01.4-.01.6,0,.762-.294a4.806,4.806,0,0,0,.164-1.682,2.715,2.715,0,0,0-.135-1.027.647.647,0,0,0-.352-.371,3.135,3.135,0,0,0-.844-.087m0,5.9v4.366a1.731,1.731,0,0,0,1.094-.27,1.893,1.893,0,0,0,.236-1.186V10.822a2.056,2.056,0,0,0-.212-1.214,1.9,1.9,0,0,0-1.118-.241" transform="translate(-51.385 -0.469)" fill="#1a1311"/>
        <path id="Path_3006" data-name="Path 3006" d="M119.486.8,121.807,16.4H117.66l-.218-2.8H115.99l-.244,2.8h-4.2L113.621.8Zm-2.151,10.034q-.308-2.651-.618-6.555-.62,4.483-.779,6.555Z" transform="translate(-65.673 -0.469)" fill="#1a1311"/>
        <path id="Path_3007" data-name="Path 3007" d="M146.279,5.051H142.51V3.894a2.263,2.263,0,0,0-.145-1.031.531.531,0,0,0-.482-.222.613.613,0,0,0-.554.3,1.733,1.733,0,0,0-.188.906,2.575,2.575,0,0,0,.211,1.177,3.067,3.067,0,0,0,1.147.954,11.569,11.569,0,0,1,3.413,2.64,6.05,6.05,0,0,1,.7,3.326,5.831,5.831,0,0,1-.39,2.458,3.056,3.056,0,0,1-1.509,1.326,5.967,5.967,0,0,1-2.6.535,5.819,5.819,0,0,1-2.781-.617,3.026,3.026,0,0,1-1.509-1.571,8.054,8.054,0,0,1-.357-2.708V10.343h3.769v1.9a2.5,2.5,0,0,0,.159,1.128.615.615,0,0,0,.564.25.661.661,0,0,0,.6-.318,1.815,1.815,0,0,0,.2-.944,2.924,2.924,0,0,0-.376-1.8,11.963,11.963,0,0,0-1.9-1.417,18.643,18.643,0,0,1-2-1.456,3.4,3.4,0,0,1-.814-1.253,5.511,5.511,0,0,1-.323-2.044,5.67,5.67,0,0,1,.458-2.622,3.081,3.081,0,0,1,1.479-1.3A5.909,5.909,0,0,1,141.748,0a6.43,6.43,0,0,1,2.694.511A2.82,2.82,0,0,1,145.917,1.8a6.812,6.812,0,0,1,.362,2.636Z" transform="translate(-80.858 0)" fill="#1a1311"/>
        <path id="Path_3008" data-name="Path 3008" d="M162.984.8h6.767V3.92h-2.709V6.879h2.535V9.848h-2.535V13.28h2.978V16.4h-7.036Z" transform="translate(-95.954 -0.469)" fill="#1a1311"/>
        <path id="Path_3009" data-name="Path 3009" d="M55.18,8.834h5.181v.059l-4.189,3.035,1.643,5-.044.015-4.249-3.079-4.248,3.079-.044-.015,1.643-5-4.19-3.035V8.834h5.182L53.492,3.86h.06Z" transform="translate(-27.483 -2.272)" fill="#1a1311"/>
      </g>
    </g>
  </g>
</svg>
