<svg xmlns="http://www.w3.org/2000/svg" width="154.115" height="12.09" viewBox="0 0 154.115 12.09">
  <path id="Path_106880" data-name="Path 106880" d="M8.1-2.249V-.923H4.9V-2.249ZM8.957-.208V-2.951H4.043V.442H4.9v-.65ZM11.609-4.6H1.469V.988h.923V-3.783h8.255v3.6c0,.182-.039.247-.26.247-.234.026-.962.026-1.794,0a3.872,3.872,0,0,1,.312.9A8.248,8.248,0,0,0,11.089.819c.4-.169.52-.455.52-.975ZM9.022-6.123H3.952V-7.384h5.07ZM3.029-8.073v2.652H9.984V-8.073ZM6.916-9.646v-1.235H5.941v1.235H.9V-8.8H12.1v-.845ZM15.522-3.51a9.343,9.343,0,0,1-.845,3.094,3.377,3.377,0,0,1,.754.364,11.441,11.441,0,0,0,.923-3.3Zm3.419-.975a7.418,7.418,0,0,1,.247.78L19.9-4.03a10.293,10.293,0,0,0-1.222-2.652l-.676.273a11.79,11.79,0,0,1,.6,1.144c-.715.039-1.4.078-2.054.1a44.6,44.6,0,0,0,2.587-3.874L18.317-9.4A26.477,26.477,0,0,1,17-7.072a10.44,10.44,0,0,0-.754-.845c.481-.728,1.027-1.755,1.469-2.613l-.845-.338A16.44,16.44,0,0,1,15.7-8.45c-.13-.117-.247-.234-.377-.338l-.494.637A12.109,12.109,0,0,1,16.51-6.318c-.286.429-.585.845-.858,1.2l-.858.039.078.858c.6-.039,1.3-.078,2.041-.117V1.014h.858V-4.407Zm2.483-4.693h2.327c-.195,1.1-.481,2.613-.741,3.744l.871.1.13-.6h1.417a9.764,9.764,0,0,1-1.7,3.666,15.148,15.148,0,0,1-2.3-6.253Zm4.524,2.34-.169.039H24.193c.234-1.118.455-2.3.6-3.211l-.65-.091-.156.039H19.292v.884h1.274v1.911a15.2,15.2,0,0,1-.884,5.707A12.627,12.627,0,0,0,18.928-3.6l-.7.221a12.027,12.027,0,0,1,.767,2.314l.559-.2A8.062,8.062,0,0,1,18.512.455a3.7,3.7,0,0,1,.715.507A11.512,11.512,0,0,0,21.372-5.46a13.105,13.105,0,0,0,1.768,3.9A8.487,8.487,0,0,1,20.592.26a2.878,2.878,0,0,1,.663.715A9.075,9.075,0,0,0,23.7-.845,7.043,7.043,0,0,0,26.26,1a3.735,3.735,0,0,1,.624-.793A6.365,6.365,0,0,1,24.31-1.547a12.074,12.074,0,0,0,2.21-5.07ZM33.7-9.191c.039.156.13.663.273,1.365-1.222.2-2.353.364-2.86.416-.416.052-.754.078-1.079.091l.221,1.17c.39-.091.689-.156,1.053-.221.494-.091,1.625-.273,2.86-.468.156.806.338,1.729.52,2.613-1.482.234-2.9.455-3.549.546-.338.052-.845.1-1.144.117l.234,1.131c.273-.078.637-.143,1.144-.234.637-.117,2.028-.351,3.5-.6.247,1.287.455,2.34.507,2.626.091.39.13.78.195,1.222L36.751.364C36.634,0,36.53-.442,36.439-.819c-.065-.3-.273-1.339-.533-2.613,1.274-.2,2.483-.39,3.2-.507.481-.078.9-.143,1.17-.169L40.066-5.2c-.286.078-.65.156-1.157.247-.65.117-1.885.338-3.2.546-.169-.871-.351-1.794-.52-2.6,1.248-.2,2.431-.39,3.029-.481.338-.052.741-.1.936-.13L38.935-8.71a8.154,8.154,0,0,1-.923.221c-.546.1-1.742.3-3,.507-.156-.728-.247-1.261-.273-1.4-.039-.286-.1-.65-.117-.9l-1.17.208A6.09,6.09,0,0,1,33.7-9.191ZM47.905-7.956l-1.118.273a3.23,3.23,0,0,1,.312.78c.078.247.234.806.429,1.5-.793.143-1.4.26-1.586.286-.39.065-.715.117-1.079.143l.26.988c.351-.078,1.417-.286,2.639-.533.507,1.859,1.131,4.16,1.3,4.745a7.259,7.259,0,0,1,.195.949l1.1-.286C50.284.65,50.154.247,50.076,0c-.169-.572-.806-2.86-1.326-4.732,1.807-.364,3.64-.728,3.939-.78a12,12,0,0,1-2.236,2.678l.923.455a17.983,17.983,0,0,0,2.769-3.8L53.5-6.63A2.747,2.747,0,0,1,53-6.474c-.442.1-2.652.533-4.485.884-.195-.689-.351-1.248-.429-1.534C48.009-7.449,47.944-7.735,47.905-7.956ZM60.151-9.529l-.741.793a27,27,0,0,1,3.237,2.717l.819-.819A28.466,28.466,0,0,0,60.151-9.529ZM59.033-.819,59.722.247a14.249,14.249,0,0,0,5.109-2.015A12.989,12.989,0,0,0,69.2-6.4L68.575-7.5a12.246,12.246,0,0,1-4.342,4.784A13.423,13.423,0,0,1,59.033-.819ZM81.367-9.061a.86.86,0,0,1,.858-.871.868.868,0,0,1,.858.871.854.854,0,0,1-.858.845A.846.846,0,0,1,81.367-9.061Zm-.6,0a1.451,1.451,0,0,0,1.456,1.443,1.451,1.451,0,0,0,1.456-1.443,1.465,1.465,0,0,0-1.456-1.469A1.465,1.465,0,0,0,80.769-9.061ZM75.127-9.75H73.918A7.045,7.045,0,0,1,74-8.7v7.15c0,1.053.559,1.508,1.56,1.69a13.661,13.661,0,0,0,2.08.13A36.347,36.347,0,0,0,82.134,0V-1.183a21.277,21.277,0,0,1-4.446.416,12.355,12.355,0,0,1-1.716-.1c-.637-.13-.91-.3-.91-.962v-2.86a49.838,49.838,0,0,0,5.317-1.69c.39-.143.858-.351,1.222-.507l-.455-1.04A9.477,9.477,0,0,1,80-7.345a35.41,35.41,0,0,1-4.94,1.586V-8.7A8.633,8.633,0,0,1,75.127-9.75Zm13.624.221-.741.793a27,27,0,0,1,3.237,2.717l.819-.819A28.466,28.466,0,0,0,88.751-9.529ZM87.633-.819,88.322.247a14.249,14.249,0,0,0,5.109-2.015A12.989,12.989,0,0,0,97.8-6.4L97.175-7.5a12.246,12.246,0,0,1-4.342,4.784A13.423,13.423,0,0,1,87.633-.819ZM110.045-10.4l-.689.3a14.7,14.7,0,0,1,1.053,1.794l.7-.312A18.425,18.425,0,0,0,110.045-10.4Zm1.43-.52-.689.3a13.511,13.511,0,0,1,1.079,1.781l.7-.312A18.6,18.6,0,0,0,111.475-10.92Zm-4.927,1.144-1.2-.4a4.821,4.821,0,0,1-.4,1.04,10.889,10.889,0,0,1-4.082,4.394l.9.663a12.544,12.544,0,0,0,3.3-3.2h4.381a10.556,10.556,0,0,1-2.067,4.056,10.411,10.411,0,0,1-5.2,3.263l.949.858A11.572,11.572,0,0,0,108.3-2.639a12.716,12.716,0,0,0,2.3-4.485,4.085,4.085,0,0,1,.3-.689l-.858-.52a2.489,2.489,0,0,1-.845.117h-3.523c.1-.182.208-.364.3-.546C106.106-9,106.34-9.438,106.548-9.776ZM121-10.231h-1.222a7.88,7.88,0,0,1,.091,1.079c0,.468-.026.91-.052,1.326h-2.288a13.606,13.606,0,0,1-1.482-.078V-6.8a13.872,13.872,0,0,1,1.5-.052h2.184a8.359,8.359,0,0,1-2.574,5.473,6.407,6.407,0,0,1-1.339.962l.949.767c2.171-1.5,3.523-3.471,3.991-7.2h3.64c0,1.391-.169,4.589-.663,5.577a.7.7,0,0,1-.754.429,15.816,15.816,0,0,1-1.937-.143l.13,1.079c.676.039,1.43.091,2.093.091a1.349,1.349,0,0,0,1.391-.793c.585-1.248.741-5.031.793-6.279a4.066,4.066,0,0,1,.065-.637l-.728-.364a4.685,4.685,0,0,1-.832.065h-3.094c.026-.429.052-.871.065-1.339C120.939-9.477,120.965-9.932,121-10.231Zm9.022,4.6v1.274c.4-.039,1.092-.065,1.807-.065h7.137c.585,0,1.131.052,1.391.065V-5.629c-.286.026-.754.065-1.4.065h-7.124C131.1-5.564,130.416-5.6,130.026-5.629Zm16.029-5.2a15.479,15.479,0,0,1-2.769,5.252,6.988,6.988,0,0,1,.507.975,13.988,13.988,0,0,0,1.222-1.729V.988h.9v-9a20.893,20.893,0,0,0,1.04-2.574Zm4.225,4.16a14.756,14.756,0,0,1-.624,2.678,12.346,12.346,0,0,0-1.638-1.274c.182-.455.351-.923.494-1.4ZM147-9.347h1.17A11.563,11.563,0,0,1,146.2-3.861a4.034,4.034,0,0,1,.585.663,7.09,7.09,0,0,0,.871-1.3,11.643,11.643,0,0,1,1.664,1.4,7.723,7.723,0,0,1-2.6,3.38,2.867,2.867,0,0,1,.624.741c1.989-1.443,3.419-4.2,3.926-8.4l-.559-.169-.169.026h-1.794c.143-.624.26-1.235.364-1.833H151.7v-.871H147Zm5.616-.065h-.858v7.449h.858Zm1.508-1.261V-.221c0,.221-.078.286-.3.3s-.9.013-1.677-.013a3.959,3.959,0,0,1,.312.936,6.119,6.119,0,0,0,2.028-.182c.39-.156.52-.442.52-1.04V-10.673Z" transform="translate(-0.897 10.92)" fill="#fff"/>
</svg>
