<svg xmlns="http://www.w3.org/2000/svg" xmlns:xlink="http://www.w3.org/1999/xlink" width="21.203" height="21.359" viewBox="0 0 21.203 21.359">
  <defs>
    <clipPath id="clip-path">
      <rect id="Rectangle_15875" data-name="Rectangle 15875" width="21.203" height="21.36" fill="#fff"/>
    </clipPath>
  </defs>
  <g id="Group_27468" data-name="Group 27468" transform="translate(-51.797 -12599.641)">
    <g id="Group_2978" data-name="Group 2978" transform="translate(66.797 12751.641)">
      <g id="Group_1801" data-name="Group 1801" transform="translate(-15 -152)" clip-path="url(#clip-path)">
        <path id="Path_2536" data-name="Path 2536" d="M16.644,29.478l-3.982-2a1.563,1.563,0,0,0-1.481.147l-1.157.856A1.271,1.271,0,0,1,8.7,28.4a19.27,19.27,0,0,1-4.254-5.748,1.271,1.271,0,0,1,.31-1.287l1.157-.856a1.563,1.563,0,0,0,.574-1.373l-.747-4.392a1.745,1.745,0,0,0-2.63-1.16,5.115,5.115,0,0,0-.513.334c-4.037,2.987-3.052,8.741.764,13.935h0l.025.033.024.033h0c3.851,5.167,9.066,7.791,13.1,4.8a5.114,5.114,0,0,0,.47-.393,1.745,1.745,0,0,0-.34-2.855" transform="translate(0 -12.624)" fill="#fff"/>
        <path id="Path_2537" data-name="Path 2537" d="M189.624,104.843a7.29,7.29,0,0,1,3.712,3.791.564.564,0,1,0,1.039-.44,8.415,8.415,0,0,0-4.284-4.378.564.564,0,1,0-.467,1.027" transform="translate(-179.177 -98.219)" fill="#fff"/>
        <path id="Path_2538" data-name="Path 2538" d="M196.32,51.553a.564.564,0,1,0-.381,1.062,10.039,10.039,0,0,1,6.349,6.855.564.564,0,0,0,1.091-.288,11.167,11.167,0,0,0-7.058-7.629" transform="translate(-185.113 -48.767)" fill="#fff"/>
        <path id="Path_2539" data-name="Path 2539" d="M212.162,10.809a13.69,13.69,0,0,0-3.288-6.7,14.146,14.146,0,0,0-6.394-4.09A.564.564,0,1,0,202.15,1.1a12.917,12.917,0,0,1,8.9,9.907.564.564,0,0,0,.554.464.573.573,0,0,0,.1-.009.564.564,0,0,0,.455-.655" transform="translate(-190.969 0.001)" fill="#fff"/>
      </g>
    </g>
  </g>
</svg>
