<svg xmlns="http://www.w3.org/2000/svg" xmlns:xlink="http://www.w3.org/1999/xlink" width="82" height="82" viewBox="0 0 82 82">
  <defs>
    <clipPath id="clip-path">
      <rect id="Rectangle_16901" data-name="Rectangle 16901" width="34" height="40" transform="translate(0.082 -0.179)" fill="#fff"/>
    </clipPath>
  </defs>
  <g id="Group_27462" data-name="Group 27462" transform="translate(-106 -2072)">
    <g id="Group_27461" data-name="Group 27461" transform="translate(-406 -84)">
      <path id="Path_106999" data-name="Path 106999" d="M41,0A41,41,0,1,1,0,41,41,41,0,0,1,41,0Z" transform="translate(512 2156)" fill="#e59601"/>
      <g id="Group_2682" data-name="Group 2682" transform="translate(535.918 2177.18)" clip-path="url(#clip-path)">
        <path id="Path_3698" data-name="Path 3698" d="M19.347,41.865H15.161c0,.309,0,.675,0,1.041,0,.7-.316,1.02-1.018,1.021q-2.473,0-4.949,0a.873.873,0,0,1-1.007-.957,7.6,7.6,0,0,0-2.1-5.138A14.279,14.279,0,0,1,2.494,30.7a11.28,11.28,0,0,1,.9-6.865c.125.08.231.142.33.212A12.1,12.1,0,0,0,22.411,17.4c.576-2.152,2.134-3.083,4.085-3.638a8.006,8.006,0,0,1,1.033-.187.892.892,0,0,1,.938.413,1.007,1.007,0,0,1,.016,1.026,10.341,10.341,0,0,0-.783,2.08,6.529,6.529,0,0,0,.1,1.831c.01.1.139.208.234.288a13.176,13.176,0,0,1,4,5.62.492.492,0,0,0,.351.249c.321.037.649,0,.972.018a1.548,1.548,0,0,1,1.524,1.511q.034,2.031,0,4.063a1.541,1.541,0,0,1-1.507,1.486c-.286.013-.572.016-.857,0a.351.351,0,0,0-.421.279,12.532,12.532,0,0,1-3.751,5.553,5.381,5.381,0,0,0-2.008,4.452c.046,1.34-.137,1.487-1.485,1.487q-2.221,0-4.443,0c-.76,0-1.057-.3-1.061-1.056,0-.333,0-.665,0-1.007m7.346-16.508a1.288,1.288,0,1,0-1.285-1.314,1.289,1.289,0,0,0,1.285,1.314" transform="translate(-0.729 -4.293)" fill="#fff"/>
        <path id="Path_3699" data-name="Path 3699" d="M10.026,0A9.956,9.956,0,1,0,20.052,9.956,9.992,9.992,0,0,0,10.026,0m2.688,9.148h.775a.742.742,0,0,1,.792.753.754.754,0,0,1-.792.77h-.016l-1.8-.016c-.132.016-.115,0-.182.1l-.3.409a.9.9,0,0,0-.231.687c.016.066.033.082.115.082.99,0,1.88,0,2.391-.016h.016a.779.779,0,1,1,0,1.556h-.016c-.726,0-1.55-.016-2.408-.016-.066,0-.083.033-.083.082,0,.769.016,1.6.016,2.342a.859.859,0,0,1-.94.851.905.905,0,0,1-.973-.9V13.538c0-.066-.016-.1-.083-.1-1.072,0-2.062,0-2.754.033a.735.735,0,0,1-.808-.787.723.723,0,0,1,.742-.769h.033c.512.016,1.583.016,2.755.016.1,0,.1-.016.115-.1a.727.727,0,0,0-.1-.459c-.429-.7-.528-.737-.61-.737-.825,0-1.567.016-2.127.033a.747.747,0,0,1-.808-.77.719.719,0,0,1,.742-.753h.033c.264,0,.66.016,1.139.016.132,0,.132-.016.132-.016s0-.016-2.309-3.407A.887.887,0,0,1,5,5.2a.97.97,0,0,1,.957-.917.825.825,0,0,1,.742.459C7.355,5.889,8.442,7.478,9.547,9.1c.05.066.066.049.165.066h.692c.083-.016.083,0,.132-.066a51.341,51.341,0,0,0,2.787-4.373.782.782,0,0,1,.693-.426,1.038,1.038,0,0,1,1.039.933c0,.279,0,.3-2.391,3.832-.017.033-.033.049-.033.066s.016.016.083.016" fill="#fff"/>
      </g>
    </g>
  </g>
</svg>
