<svg xmlns="http://www.w3.org/2000/svg" xmlns:xlink="http://www.w3.org/1999/xlink" width="82" height="82" viewBox="0 0 82 82">
  <defs>
    <clipPath id="clip-path">
      <rect id="Rectangle_16903" data-name="Rectangle 16903" width="32" height="38" transform="translate(-0.056 0.361)" fill="#fff"/>
    </clipPath>
  </defs>
  <g id="Group_27461" data-name="Group 27461" transform="translate(-1010 -2156)">
    <circle id="Ellipse_128" data-name="Ellipse 128" cx="41" cy="41" r="41" transform="translate(1010 2156)" fill="#e59601"/>
    <g id="Group_2879" data-name="Group 2879" transform="translate(1035.056 2177.639)">
      <g id="Group_2686" data-name="Group 2686" clip-path="url(#clip-path)">
        <path id="Path_3702" data-name="Path 3702" d="M27.948,3.735c-.821,0-1.641,0-2.461,0H23.664v1.18c0,.536,0,1.054,0,1.57a3.361,3.361,0,0,1-3.354,3.628q-4.586.005-9.169,0A3.373,3.373,0,0,1,7.769,6.466V3.734H6.187c-.9,0-1.794,0-2.682,0A3.48,3.48,0,0,0,0,7.479Q0,21.932,0,36.385a3.474,3.474,0,0,0,3.5,3.745l11.544,0,12.9,0a3.493,3.493,0,0,0,3.485-3.724q.006-14.472,0-28.946a3.5,3.5,0,0,0-3.483-3.725M16.705,31.23a1.533,1.533,0,0,1,.355-.029h7.983a1.01,1.01,0,0,1,.722.262.957.957,0,0,1-.725,1.616h-.674q-3.711,0-7.42,0a.887.887,0,0,1-.89-.835.925.925,0,0,1,.651-1.013m8.346-5.806q-4.01,0-8.022,0a.988.988,0,0,1-.724-.274.92.92,0,0,1-.254-.674.9.9,0,0,1,1-.931h7.983a.91.91,0,0,1,1,.933.923.923,0,0,1-.252.673.993.993,0,0,1-.725.273m-.019-7.655H17.048a.91.91,0,0,1-1-.933.926.926,0,0,1,.251-.675.994.994,0,0,1,.726-.272h8.022a1,1,0,0,1,.726.274.925.925,0,0,1,.251.673.91.91,0,0,1-1,.933M12.716,14.994q-.818.887-1.638,1.769l-1.069,1.155c-.252.274-.5.549-.762.816a.858.858,0,0,1-.636.317.879.879,0,0,1-.62-.316q-1.156-1.229-2.3-2.475a1.011,1.011,0,0,1-.049-1.393.771.771,0,0,1,.568-.267h0a.917.917,0,0,1,.656.318c.336.357.665.72,1.008,1.1l.727.8,1.05-1.133c.623-.671,1.232-1.329,1.839-1.989a.8.8,0,0,1,.764-.324.812.812,0,0,1,.685.607.965.965,0,0,1-.228,1.022M5.637,30.187a.8.8,0,0,1,.578-.278h.012a.85.85,0,0,1,.609.282c.351.366.694.741,1.048,1.129l.737.8L9.56,31.1c.67-.726,1.322-1.435,1.976-2.141a.755.755,0,0,1,.892-.238.861.861,0,0,1,.56.758.909.909,0,0,1-.236.782l-.154.167c-1.128,1.225-2.256,2.449-3.4,3.659a.8.8,0,0,1-.581.279h0a.819.819,0,0,1-.591-.282q-1.2-1.265-2.373-2.557a1,1,0,0,1-.019-1.341m7.133-7.6c-1.2,1.316-2.408,2.622-3.6,3.881a.747.747,0,0,1-.546.251h0a.8.8,0,0,1-.573-.264c-.827-.866-1.641-1.745-2.422-2.612a.986.986,0,0,1,.014-1.311.8.8,0,0,1,.581-.275h.01a.811.811,0,0,1,.582.262c.354.368.7.746,1.067,1.154l.819.9.238-.342c.048-.068.09-.133.13-.195a2.173,2.173,0,0,1,.2-.281c.76-.83,1.52-1.658,2.295-2.472a.9.9,0,0,1,.595-.27.8.8,0,0,1,.581.269.984.984,0,0,1,.027,1.307" transform="translate(0.228 -1.637)" fill="#fff"/>
        <path id="Path_3703" data-name="Path 3703" d="M15.506,7.051h9.206A1.578,1.578,0,0,0,26.353,5.3q.005-1.755,0-3.51A1.583,1.583,0,0,0,24.681,0H18.774q-1.65,0-3.3,0a1.559,1.559,0,0,0-1.62,1.726q-.006,1.795,0,3.59a1.576,1.576,0,0,0,1.653,1.734" transform="translate(-4.158 -0.455)" fill="#fff"/>
      </g>
    </g>
  </g>
</svg>
