<svg xmlns="http://www.w3.org/2000/svg" xmlns:xlink="http://www.w3.org/1999/xlink" width="82" height="82" viewBox="0 0 82 82">
  <defs>
    <clipPath id="clip-path">
      <rect id="Rectangle_16907" data-name="Rectangle 16907" width="41" height="41" transform="translate(0.5 0.5)" fill="#fff"/>
    </clipPath>
  </defs>
  <g id="Group_27462" data-name="Group 27462" transform="translate(-512 -2440)">
    <circle id="Ellipse_131" data-name="Ellipse 131" cx="41" cy="41" r="41" transform="translate(512 2440)" fill="#e59601"/>
    <g id="Group_2882" data-name="Group 2882" transform="translate(532.5 2460.5)">
      <g id="Group_2690" data-name="Group 2690" clip-path="url(#clip-path)">
        <path id="Path_3707" data-name="Path 3707" d="M32.592,41a18.906,18.906,0,0,1-2.263-.623,7.636,7.636,0,0,1-4.382-9.233.594.594,0,0,0-.171-.7Q18.15,22.843,10.546,15.214a.6.6,0,0,0-.695-.171A7.683,7.683,0,0,1,.009,7.266a7.6,7.6,0,0,1,.085-.8,1.148,1.148,0,0,1,.808-1,1.17,1.17,0,0,1,1.253.3C2.966,6.58,3.771,7.4,4.6,8.2a.724.724,0,0,0,.515.188c.952-.111,1.9-.26,2.885-.4.141-1.008.29-2.008.411-3.011a.6.6,0,0,0-.2-.4c-.767-.782-1.537-1.559-2.323-2.321A1.251,1.251,0,0,1,5.482.883,1.229,1.229,0,0,1,6.645.057a7.66,7.66,0,0,1,8.611,6.3,7.268,7.268,0,0,1-.225,3.559.476.476,0,0,0,.141.558q7.677,7.669,15.342,15.349a.48.48,0,0,0,.56.134,7.67,7.67,0,0,1,9.852,6.323c.014.1.049.2.073.3v1.442a2.706,2.706,0,0,0-.077.342,1.2,1.2,0,0,1-.806,1.134,1.238,1.238,0,0,1-1.374-.385q-1.16-1.189-2.352-2.347a.627.627,0,0,0-.441-.178c-.976.118-1.95.266-2.947.407-.141,1-.29,1.97-.4,2.947a.687.687,0,0,0,.207.469c.791.813,1.6,1.61,2.4,2.412a1.212,1.212,0,0,1-.713,2.081c-.128.021-.254.058-.38.087Z" transform="translate(0 0)" fill="#fff"/>
      </g>
    </g>
  </g>
</svg>
